<svg width="24" height="24" viewBox="0 0 24 24" fill="none" xmlns="http://www.w3.org/2000/svg">
<path d="M5.916 12.5001L9.662 16.2461C9.75533 16.3394 9.80533 16.4544 9.812 16.5911C9.81867 16.7264 9.76866 16.8474 9.662 16.9541C9.55533 17.0608 9.43733 17.1141 9.308 17.1141C9.17866 17.1141 9.06067 17.0608 8.954 16.9541L4.565 12.5651C4.47833 12.4784 4.41733 12.3894 4.382 12.2981C4.34667 12.2074 4.329 12.1081 4.329 12.0001C4.329 11.8921 4.34667 11.7928 4.382 11.7021C4.41733 11.6114 4.47867 11.5224 4.566 11.4351L8.954 7.0461C9.04733 6.95276 9.162 6.90276 9.298 6.8961C9.434 6.88943 9.55533 6.93943 9.662 7.0461C9.76866 7.15276 9.822 7.27076 9.822 7.4001C9.822 7.52943 9.76866 7.64743 9.662 7.7541L5.916 11.5001H19.5C19.6427 11.5001 19.7617 11.5478 19.857 11.6431C19.9523 11.7384 20 11.8574 20 12.0001C20 12.1428 19.9523 12.2618 19.857 12.3571C19.7617 12.4524 19.6427 12.5001 19.5 12.5001H5.916Z" fill="black"/>
</svg>
