<svg width="24" height="24" viewBox="0 0 24 24" fill="none" xmlns="http://www.w3.org/2000/svg">
<path d="M4.73 21.0001C4.524 21.0001 4.35067 20.9234 4.21 20.7701C4.07 20.6168 4 20.4368 4 20.2301V15.4621C4 15.0148 4.15733 14.6334 4.472 14.3181C4.78667 14.0028 5.16767 13.8454 5.615 13.8461H6V9.69211C6 9.24544 6.15733 8.86444 6.472 8.54911C6.78667 8.23444 7.16767 8.07711 7.615 8.07711H11.5V6.58811C11.2133 6.40144 10.975 6.18878 10.785 5.95011C10.595 5.71144 10.5 5.43078 10.5 5.10811C10.5 4.90944 10.5373 4.72111 10.612 4.54311C10.6867 4.36511 10.798 4.20178 10.946 4.05311L11.708 3.29311C11.728 3.27244 11.8253 3.22878 12 3.16211C12.0333 3.16211 12.1307 3.20544 12.292 3.29211L13.054 4.05411C13.2027 4.20278 13.314 4.36611 13.388 4.54411C13.462 4.72211 13.4993 4.91011 13.5 5.10811C13.5 5.43078 13.405 5.71144 13.215 5.95011C13.0257 6.18878 12.7873 6.40178 12.5 6.58911V8.07711H16.384C16.832 8.07711 17.2133 8.23444 17.528 8.54911C17.8427 8.86378 18 9.24478 18 9.69211V13.8461H18.385C18.8317 13.8461 19.2127 14.0034 19.528 14.3181C19.8427 14.6334 20 15.0148 20 15.4621V20.2311C20 20.4378 19.9233 20.6178 19.77 20.7711C19.6167 20.9244 19.4367 21.0008 19.23 21.0001H4.73ZM7 13.8461H17V9.69211C17 9.51278 16.9423 9.36544 16.827 9.25011C16.7117 9.13478 16.5643 9.07711 16.385 9.07711H7.615C7.43567 9.07711 7.28833 9.13478 7.173 9.25011C7.05767 9.36544 7 9.51278 7 9.69211V13.8461ZM5 20.0001H19V15.4621C19 15.2821 18.9423 15.1344 18.827 15.0191C18.7117 14.9038 18.5643 14.8461 18.385 14.8461H5.615C5.43567 14.8461 5.28833 14.9038 5.173 15.0191C5.05767 15.1344 5 15.2821 5 15.4621V20.0001Z" fill="black"/>
</svg>
