<svg width="24" height="28" viewBox="0 0 24 28" fill="none" xmlns="http://www.w3.org/2000/svg">
<path d="M2.424 27.345C1.733 27.345 1.1565 27.114 0.6945 26.652C0.2325 26.19 0.001 25.6135 0 24.9225V5.7675C0 5.0775 0.2315 4.5015 0.6945 4.0395C1.1575 3.5775 1.734 3.346 2.424 3.345H5.0775V0H6.693V3.345H17.424V0H18.924V3.345H21.5775C22.2675 3.345 22.844 3.5765 23.307 4.0395C23.77 4.5025 24.001 5.079 24 5.769V24.9225C24 25.6125 23.769 26.189 23.307 26.652C22.845 27.115 22.268 27.346 21.576 27.345H2.424ZM2.424 25.845H21.5775C21.8075 25.845 22.019 25.749 22.212 25.557C22.405 25.365 22.501 25.153 22.5 24.921V11.769H1.5V24.9225C1.5 25.1525 1.596 25.364 1.788 25.557C1.98 25.75 2.1915 25.846 2.4225 25.845M1.5 10.2675H22.5V5.7675C22.5 5.5375 22.404 5.326 22.212 5.133C22.02 4.94 21.808 4.844 21.576 4.845H2.424C2.193 4.845 1.981 4.941 1.788 5.133C1.595 5.325 1.499 5.537 1.5 5.769V10.2675ZM12 17.076C11.69 17.076 11.42 16.961 11.19 16.731C10.96 16.501 10.845 16.231 10.845 15.921C10.845 15.611 10.96 15.3415 11.19 15.1125C11.42 14.8835 11.69 14.7685 12 14.7675C12.31 14.7665 12.58 14.8815 12.81 15.1125C13.04 15.3435 13.155 15.6135 13.155 15.9225C13.155 16.2315 13.04 16.501 12.81 16.731C12.58 16.961 12.31 17.076 12 17.076ZM6 17.076C5.69 17.076 5.42 16.961 5.19 16.731C4.96 16.501 4.845 16.231 4.845 15.921C4.845 15.611 4.96 15.3415 5.19 15.1125C5.42 14.8835 5.69 14.7685 6 14.7675C6.31 14.7665 6.58 14.8815 6.81 15.1125C7.04 15.3435 7.155 15.6135 7.155 15.9225C7.155 16.2315 7.04 16.501 6.81 16.731C6.58 16.961 6.31 17.076 6 17.076ZM18 17.076C17.69 17.076 17.42 16.961 17.19 16.731C16.96 16.501 16.845 16.231 16.845 15.921C16.845 15.611 16.96 15.3415 17.19 15.1125C17.42 14.8835 17.69 14.7685 18 14.7675C18.31 14.7665 18.58 14.8815 18.81 15.1125C19.04 15.3435 19.155 15.6135 19.155 15.9225C19.155 16.2315 19.04 16.501 18.81 16.731C18.58 16.961 18.31 17.076 18 17.076ZM12 22.845C11.69 22.845 11.42 22.73 11.19 22.5C10.96 22.27 10.845 22 10.845 21.69C10.845 21.38 10.96 21.1105 11.19 20.8815C11.42 20.6525 11.69 20.5375 12 20.5365C12.31 20.5355 12.58 20.6505 12.81 20.8815C13.04 21.1125 13.155 21.3825 13.155 21.6915C13.155 22.0005 13.04 22.2705 12.81 22.5015C12.58 22.7325 12.31 22.847 12 22.845ZM6 22.845C5.69 22.845 5.42 22.73 5.19 22.5C4.96 22.27 4.845 22 4.845 21.69C4.845 21.38 4.96 21.1105 5.19 20.8815C5.42 20.6525 5.69 20.5375 6 20.5365C6.31 20.5355 6.58 20.6505 6.81 20.8815C7.04 21.1125 7.155 21.3825 7.155 21.6915C7.155 22.0005 7.04 22.2705 6.81 22.5015C6.58 22.7325 6.31 22.847 6 22.845ZM18 22.845C17.69 22.845 17.42 22.73 17.19 22.5C16.96 22.27 16.845 22 16.845 21.69C16.845 21.38 16.96 21.1105 17.19 20.8815C17.42 20.6525 17.69 20.5375 18 20.5365C18.31 20.5355 18.58 20.6505 18.81 20.8815C19.04 21.1125 19.155 21.3825 19.155 21.6915C19.155 22.0005 19.04 22.2705 18.81 22.5015C18.58 22.7325 18.31 22.847 18 22.845Z" fill="black"/>
</svg>
