<svg width="24" height="27" viewBox="0 0 24 27" fill="none" xmlns="http://www.w3.org/2000/svg">
<path d="M1.71429 25.1454H8.04343V16.4419C8.04343 16.0499 8.17657 15.7214 8.44286 15.4562C8.708 15.1899 9.03657 15.0568 9.42857 15.0568H14.5714C14.9634 15.0568 15.2926 15.1899 15.5589 15.4562C15.824 15.7214 15.9566 16.0499 15.9566 16.4419V25.1454H22.2857V10.2448C22.2857 10.0688 22.2474 9.90878 22.1709 9.76478C22.0943 9.62078 21.9897 9.49506 21.8571 9.38764L12.6274 2.43107C12.4514 2.27792 12.2423 2.20135 12 2.20135C11.7577 2.20135 11.5491 2.27792 11.3743 2.43107L2.14286 9.38764C2.01143 9.49735 1.90686 9.62307 1.82914 9.76478C1.75143 9.90649 1.71314 10.0665 1.71429 10.2448V25.1454ZM0 25.1454V10.2448C0 9.80592 0.0982856 9.3905 0.294857 8.9985C0.491428 8.6065 0.762286 8.28364 1.10743 8.02992L10.3389 1.03907C10.8223 0.669924 11.3743 0.485352 11.9949 0.485352C12.6154 0.485352 13.1709 0.669924 13.6611 1.03907L22.8926 8.02821C23.2389 8.28192 23.5097 8.60535 23.7051 8.9985C23.9017 9.3905 24 9.80592 24 10.2448V25.1454C24 25.6048 23.8291 26.0054 23.4874 26.3471C23.1457 26.6888 22.7451 26.8596 22.2857 26.8596H15.6274C15.2343 26.8596 14.9051 26.7271 14.64 26.4619C14.3749 26.1956 14.2423 25.8665 14.2423 25.4745V16.7728H9.75772V25.4745C9.75772 25.8676 9.62514 26.1968 9.36 26.4619C9.09486 26.7271 8.76629 26.8596 8.37429 26.8596H1.71429C1.25486 26.8596 0.854285 26.6888 0.512571 26.3471C0.170857 26.0054 0 25.6048 0 25.1454Z" fill="black"/>
</svg>
