<svg width="24" height="24" viewBox="0 0 24 24" fill="none" xmlns="http://www.w3.org/2000/svg">
<path d="M19.09 14.441V18.881C19.0897 19.5092 18.84 20.1116 18.3958 20.5558C17.9516 21 17.3492 21.2497 16.721 21.25H5.11999C4.80774 21.2499 4.4986 21.188 4.21032 21.068C3.92205 20.9481 3.66032 20.7723 3.44018 20.5509C3.22004 20.3294 3.04583 20.0667 2.92755 19.7777C2.80928 19.4887 2.74928 19.1792 2.75099 18.867V7.27898C2.74913 6.96723 2.80916 6.6582 2.92761 6.36982C3.04605 6.08144 3.22056 5.81944 3.441 5.59899C3.66145 5.37855 3.92345 5.20404 4.21183 5.0856C4.50021 4.96715 4.80924 4.90712 5.12099 4.90898H9.55999" stroke="black" stroke-width="1.5" stroke-linecap="round" stroke-linejoin="round"/>
<path d="M19.09 8.99497L15.005 4.90897M6.83499 15.803V13.638C6.83699 13.281 6.97899 12.938 7.22999 12.685L16.762 3.15297C16.8885 3.02507 17.0391 2.92354 17.2051 2.85424C17.371 2.78495 17.5491 2.74927 17.729 2.74927C17.9089 2.74927 18.0869 2.78495 18.2529 2.85424C18.4189 2.92354 18.5695 3.02507 18.696 3.15297L20.847 5.30397C20.9749 5.43045 21.0764 5.58104 21.1457 5.74702C21.215 5.91301 21.2507 6.0911 21.2507 6.27097C21.2507 6.45084 21.215 6.62892 21.1457 6.79491C21.0764 6.9609 20.9749 7.11149 20.847 7.23797L11.315 16.77C11.0615 17.0217 10.7192 17.1636 10.362 17.165H8.19699C8.01806 17.1652 7.84083 17.1302 7.67547 17.0618C7.5101 16.9935 7.35985 16.8932 7.23333 16.7666C7.1068 16.6401 7.00649 16.4899 6.93813 16.3245C6.86978 16.1591 6.83473 15.9819 6.83499 15.803Z" stroke="black" stroke-width="1.5" stroke-linecap="round" stroke-linejoin="round"/>
</svg>
