<svg width="24" height="24" viewBox="0 0 24 24" fill="none" xmlns="http://www.w3.org/2000/svg">
<path d="M8.28514 10.6174C7.74571 10.6174 7.29657 10.4185 6.93771 10.0208C6.57886 9.6231 6.43771 9.15053 6.51429 8.6031L7.03886 4.50252C7.20114 3.2911 7.75714 2.29281 8.70686 1.50767C9.65657 0.722524 10.7543 0.330525 12 0.331668C13.2457 0.33281 14.3434 0.725381 15.2931 1.50938C16.2429 2.29338 16.7989 3.29167 16.9611 4.50424L17.4857 8.60652C17.5623 9.15167 17.4211 9.6231 17.0623 10.0208C16.7034 10.4185 16.2543 10.6168 15.7149 10.6157L8.28514 10.6174ZM8.18571 8.9031H15.8143L15.2571 4.78881C15.1429 3.98881 14.7789 3.33167 14.1651 2.81738C13.5514 2.3031 12.8297 2.04595 12 2.04595C11.1703 2.04595 10.4491 2.3031 9.83657 2.81738C9.224 3.33167 8.85943 3.98881 8.74286 4.78881L8.18571 8.9031ZM0 23.0117V20.1917C0 19.4842 0.205715 18.8225 0.617143 18.2065C1.02971 17.5894 1.584 17.1105 2.28 16.77C3.89829 15.994 5.51771 15.4122 7.13829 15.0248C8.75771 14.6362 10.3783 14.442 12 14.442C13.6217 14.442 15.2429 14.6362 16.8634 15.0248C18.484 15.4134 20.1023 15.9951 21.7183 16.77C22.4154 17.1105 22.9697 17.5894 23.3811 18.2065C23.7937 18.8225 24 19.4842 24 20.1917V23.0134L0 23.0117ZM1.71429 21.2974H22.2857V20.19C22.2857 19.8105 22.1629 19.4534 21.9171 19.1185C21.6726 18.7848 21.3337 18.5025 20.9006 18.2717C19.4903 17.5882 18.0354 17.0648 16.536 16.7014C15.0366 16.338 13.5246 16.1562 12 16.1562C10.4754 16.1562 8.96343 16.338 7.464 16.7014C5.96457 17.0648 4.50971 17.5882 3.09943 18.2717C2.66514 18.5025 2.32629 18.7848 2.08286 19.1185C1.83714 19.4534 1.71429 19.8111 1.71429 20.1917V21.2974Z" fill="black"/>
</svg>
