<svg width="24" height="25" viewBox="0 0 24 25" fill="none" xmlns="http://www.w3.org/2000/svg">
<path d="M1.605 24.6725C1.146 24.6725 0.763504 24.5225 0.457505 24.2225C0.151505 23.9225 -0.000995114 23.5475 4.886e-06 23.0975V19.4465C4.886e-06 19.0445 0.127005 18.688 0.381005 18.377C0.635005 18.066 0.966005 17.861 1.374 17.762L4.5285 17.114C4.8985 17.064 5.2355 17.081 5.5395 17.165C5.8435 17.249 6.1185 17.4225 6.3645 17.6855L9.5715 20.951C10.7715 20.286 11.8735 19.579 12.8775 18.83C13.8815 18.08 14.819 17.27 15.69 16.4C16.534 15.542 17.3285 14.6335 18.0735 13.6745C18.8185 12.7155 19.4985 11.6775 20.1135 10.5605L16.824 7.49148C16.585 7.29148 16.4185 7.03499 16.3245 6.72199C16.2305 6.40899 16.218 6.04249 16.287 5.62249L17.031 2.04499C17.139 1.64299 17.345 1.31399 17.649 1.05799C17.952 0.800985 18.3075 0.672485 18.7155 0.672485H22.425C22.875 0.672485 23.25 0.825486 23.55 1.13149C23.85 1.43749 24 1.81898 24 2.27599C24 4.80499 23.367 7.39249 22.101 10.0385C20.835 12.6845 19.062 15.152 16.782 17.441C14.502 19.73 12.035 21.5075 9.381 22.7735C6.727 24.0395 4.1345 24.6725 1.6035 24.6725M20.8095 9.15349C21.3115 8.02449 21.7085 6.90249 22.0005 5.78749C22.2925 4.67249 22.4535 3.60249 22.4835 2.57749C22.4835 2.46149 22.445 2.36499 22.368 2.28799C22.291 2.21099 22.1945 2.17249 22.0785 2.17249H19.0095C18.8555 2.17249 18.7305 2.21099 18.6345 2.28799C18.5385 2.36499 18.4715 2.47999 18.4335 2.63299L17.7585 5.81299C17.7195 5.92799 17.7145 6.05299 17.7435 6.18799C17.7725 6.32299 17.835 6.42899 17.931 6.50599L20.8095 9.15349ZM8.1345 21.638L5.3145 18.758C5.2175 18.663 5.1255 18.601 5.0385 18.572C4.9525 18.542 4.852 18.547 4.737 18.587L1.962 19.163C1.808 19.201 1.6925 19.268 1.6155 19.364C1.5385 19.461 1.5 19.586 1.5 19.739V22.751C1.5 22.866 1.5385 22.962 1.6155 23.039C1.6925 23.116 1.7885 23.1545 1.9035 23.1545C2.7555 23.1375 3.7535 23.006 4.8975 22.76C6.0415 22.514 7.1205 22.14 8.1345 21.638Z" fill="black"/>
</svg>
