<svg width="22" height="22" viewBox="0 0 22 22" fill="none" xmlns="http://www.w3.org/2000/svg">
<path d="M13.17 19.8901C17.354 19.6131 20.686 16.2331 20.96 11.9901C21.013 11.1601 21.013 10.3001 20.96 9.47006C20.686 5.22806 17.354 1.85006 13.17 1.57106C11.7249 1.47583 10.2751 1.47583 8.82997 1.57106C4.64597 1.84906 1.31397 5.22806 1.03997 9.47106C0.987001 10.3102 0.987001 11.1519 1.03997 11.9911C1.13997 13.5361 1.82297 14.9671 2.62797 16.1751C3.09497 17.0201 2.78697 18.0751 2.29997 18.9981C1.94997 19.6631 1.77397 19.9951 1.91497 20.2351C2.05497 20.4751 2.36997 20.4831 2.99897 20.4981C4.24397 20.5281 5.08297 20.1761 5.74897 19.6851C6.12597 19.4061 6.31497 19.2671 6.44497 19.2511C6.57497 19.2351 6.83197 19.3411 7.34397 19.5511C7.80397 19.7411 8.33897 19.8581 8.82897 19.8911C10.254 19.9851 11.743 19.9851 13.171 19.8911M10.995 11.0001H11.005M14.991 11.0001H15M6.99997 11.0001H7.00897" stroke="black" stroke-width="1.5" stroke-linecap="round" stroke-linejoin="round"/>
</svg>
